<svg width="70" height="70" viewBox="0 0 22 22" fill="none" xmlns="http://www.w3.org/2000/svg">
<path fill-rule="evenodd" clip-rule="evenodd" d="M9.325 6.824C9.45231 6.88522 9.55975 6.98114 9.63494 7.10074C9.71013 7.22033 9.75001 7.35873 9.75 7.5V14.5C9.75 14.6989 9.67098 14.8897 9.53033 15.0303C9.38968 15.171 9.19891 15.25 9 15.25C8.80109 15.25 8.61032 15.171 8.46967 15.0303C8.32902 14.8897 8.25 14.6989 8.25 14.5V9.06L6.969 10.086C6.89205 10.1475 6.80373 10.1933 6.70908 10.2207C6.61444 10.2481 6.51533 10.2566 6.41742 10.2456C6.3195 10.2347 6.22468 10.2046 6.13839 10.1571C6.0521 10.1095 5.97602 10.0455 5.9145 9.9685C5.85298 9.89155 5.80721 9.80323 5.77982 9.70858C5.75243 9.61394 5.74395 9.51483 5.75486 9.41691C5.77689 9.21916 5.87658 9.03825 6.032 8.914L8.532 6.914C8.64231 6.82588 8.77525 6.77068 8.91553 6.75476C9.05582 6.73884 9.19775 6.76284 9.325 6.824ZM13.25 8.25C12.9848 8.25 12.7304 8.35536 12.5429 8.54289C12.3554 8.73043 12.25 8.98478 12.25 9.25V12.75C12.25 13.0152 12.3554 13.2696 12.5429 13.4571C12.7304 13.6446 12.9848 13.75 13.25 13.75C13.5152 13.75 13.7696 13.6446 13.9571 13.4571C14.1446 13.2696 14.25 13.0152 14.25 12.75V9.25C14.25 8.98478 14.1446 8.73043 13.9571 8.54289C13.7696 8.35536 13.5152 8.25 13.25 8.25ZM10.75 9.25C10.75 8.58696 11.0134 7.95107 11.4822 7.48223C11.9511 7.01339 12.587 6.75 13.25 6.75C13.913 6.75 14.5489 7.01339 15.0178 7.48223C15.4866 7.95107 15.75 8.58696 15.75 9.25V12.75C15.75 13.413 15.4866 14.0489 15.0178 14.5178C14.5489 14.9866 13.913 15.25 13.25 15.25C12.587 15.25 11.9511 14.9866 11.4822 14.5178C11.0134 14.0489 10.75 13.413 10.75 12.75V9.25Z" fill="#000000"/>
<path fill-rule="evenodd" clip-rule="evenodd" d="M10.324 0.675C10.3852 0.547685 10.4811 0.440248 10.6007 0.365059C10.7203 0.28987 10.8587 0.249986 11 0.25C11.735 0.25 12.454 0.324 13.15 0.465C18.056 1.461 21.75 5.798 21.75 11C21.75 16.937 16.937 21.75 11 21.75C5.063 21.75 0.25 16.937 0.25 11C0.25 6.59 2.905 2.803 6.7 1.145C6.79076 1.102 6.88923 1.07767 6.98957 1.07344C7.08992 1.06922 7.19008 1.08519 7.28414 1.12041C7.37819 1.15563 7.46421 1.20938 7.5371 1.27848C7.60998 1.34757 7.66825 1.4306 7.70844 1.52264C7.74863 1.61467 7.76993 1.71385 7.77107 1.81427C7.77221 1.9147 7.75317 2.01433 7.71507 2.10725C7.67698 2.20018 7.62061 2.28451 7.54931 2.35524C7.47801 2.42597 7.39323 2.48166 7.3 2.519C5.77167 3.18602 4.45208 4.25378 3.48085 5.60929C2.50962 6.96481 1.92289 8.55766 1.78273 10.2193C1.64257 11.8809 1.95421 13.5496 2.68466 15.0486C3.41511 16.5477 4.53721 17.8214 5.93221 18.735C7.32722 19.6486 8.94325 20.1681 10.6093 20.2385C12.2754 20.3089 13.9295 19.9277 15.3966 19.1351C16.8638 18.3425 18.0893 17.168 18.9437 15.736C19.7981 14.3039 20.2494 12.6675 20.25 11C20.2497 9.02696 19.6188 7.10565 18.4495 5.51645C17.2802 3.92725 15.6336 2.75333 13.75 2.166V3.5C13.7502 3.65554 13.702 3.80729 13.6122 3.93424C13.5223 4.06119 13.3952 4.15706 13.2484 4.20858C13.1017 4.2601 12.9425 4.26471 12.793 4.22179C12.6435 4.17887 12.5111 4.09053 12.414 3.969L10.414 1.469C10.3257 1.35859 10.2704 1.22547 10.2545 1.08498C10.2385 0.944499 10.2626 0.802374 10.324 0.675Z" fill="#000000"/>
</svg>
