<svg width="70" height="70" viewBox="0 0 32 37" fill="none" xmlns="http://www.w3.org/2000/svg">
<path d="M31.1875 18.5C31.1887 18.9775 31.0662 19.4471 30.8321 19.8633C30.598 20.2794 30.2602 20.6279 29.8516 20.8748L4.525 36.3682C4.098 36.6296 3.60895 36.7724 3.10834 36.7816C2.60773 36.7909 2.11373 36.6664 1.67734 36.4209C1.24512 36.1792 0.885056 35.8268 0.634194 35.3998C0.383333 34.9729 0.250722 34.4868 0.25 33.9916V3.0084C0.250722 2.5132 0.383333 2.02712 0.634194 1.60016C0.885056 1.17321 1.24512 0.82077 1.67734 0.579102C2.11373 0.33362 2.60773 0.209084 3.10834 0.218355C3.60895 0.227625 4.098 0.370367 4.525 0.631836L29.8516 16.1252C30.2602 16.3721 30.598 16.7206 30.8321 17.1367C31.0662 17.5529 31.1887 18.0225 31.1875 18.5Z" fill="#FF0000"/>
</svg>
