<svg width="70" height="70" viewBox="0 0 22 22" fill="none" xmlns="http://www.w3.org/2000/svg">
<path fill-rule="evenodd" clip-rule="evenodd" d="M0.25 11C0.25 5.063 5.063 0.25 11 0.25C11.1414 0.249862 11.2799 0.289694 11.3997 0.3649C11.5194 0.440107 11.6154 0.547625 11.6767 0.675055C11.7379 0.802485 11.7619 0.944635 11.7459 1.08511C11.7298 1.22559 11.6744 1.35867 11.586 1.469L9.586 3.969C9.46161 4.12442 9.28058 4.22406 9.08273 4.246C8.88488 4.26794 8.68642 4.21039 8.531 4.086C8.37558 3.96161 8.27594 3.78058 8.254 3.58273C8.23206 3.38488 8.28961 3.18642 8.414 3.031L9.317 1.903C7.19163 2.29647 5.27113 3.42173 3.88887 5.08348C2.50661 6.74522 1.74987 8.83851 1.75 11C1.7504 12.6676 2.2016 14.3041 3.05585 15.7362C3.91009 17.1684 5.13562 18.343 6.60273 19.1357C8.06983 19.9285 9.72396 20.3099 11.3901 20.2395C13.0562 20.1692 14.6723 19.6498 16.0674 18.7363C17.4625 17.8227 18.5846 16.549 19.3152 15.05C20.0457 13.5509 20.3574 11.8822 20.2173 10.2206C20.0772 8.55887 19.4905 6.96596 18.5192 5.61039C17.548 4.25483 16.2284 3.18703 14.7 2.52C14.5177 2.44044 14.3744 2.2917 14.3017 2.1065C14.2291 1.92131 14.2329 1.71484 14.3125 1.5325C14.3921 1.35016 14.5408 1.2069 14.726 1.13423C14.9112 1.06156 15.1177 1.06544 15.3 1.145C17.2173 1.98206 18.8488 3.36028 19.9944 5.11076C21.1401 6.86124 21.7502 8.90793 21.75 11C21.75 16.937 16.937 21.75 11 21.75C5.063 21.75 0.25 16.937 0.25 11ZM9.325 6.824C9.45231 6.88522 9.55975 6.98114 9.63494 7.10074C9.71013 7.22033 9.75001 7.35873 9.75 7.5V14.5C9.75 14.6989 9.67098 14.8897 9.53033 15.0303C9.38968 15.171 9.19891 15.25 9 15.25C8.80109 15.25 8.61032 15.171 8.46967 15.0303C8.32902 14.8897 8.25 14.6989 8.25 14.5V9.06L6.969 10.086C6.81358 10.2104 6.61512 10.2679 6.41727 10.246C6.21942 10.2241 6.03839 10.1244 5.914 9.969C5.78961 9.81358 5.73206 9.61512 5.754 9.41727C5.77594 9.21942 5.87558 9.03839 6.031 8.914L8.531 6.914C8.64141 6.82568 8.77453 6.77038 8.91502 6.75445C9.0555 6.73853 9.19763 6.76264 9.325 6.824ZM13.25 8.25C12.9848 8.25 12.7304 8.35536 12.5429 8.54289C12.3554 8.73043 12.25 8.98478 12.25 9.25V12.75C12.25 13.0152 12.3554 13.2696 12.5429 13.4571C12.7304 13.6446 12.9848 13.75 13.25 13.75C13.5152 13.75 13.7696 13.6446 13.9571 13.4571C14.1446 13.2696 14.25 13.0152 14.25 12.75V9.25C14.25 8.98478 14.1446 8.73043 13.9571 8.54289C13.7696 8.35536 13.5152 8.25 13.25 8.25ZM10.75 9.25C10.75 8.58696 11.0134 7.95107 11.4822 7.48223C11.9511 7.01339 12.587 6.75 13.25 6.75C13.913 6.75 14.5489 7.01339 15.0178 7.48223C15.4866 7.95107 15.75 8.58696 15.75 9.25V12.75C15.75 13.413 15.4866 14.0489 15.0178 14.5178C14.5489 14.9866 13.913 15.25 13.25 15.25C12.587 15.25 11.9511 14.9866 11.4822 14.5178C11.0134 14.0489 10.75 13.413 10.75 12.75V9.25Z" fill="black"/>
</svg>
